<mxfile host="app.diagrams.net" modified="2023-04-21T12:43:19.673Z" agent="Mozilla/5.0 (Windows NT 10.0; Win64; x64) AppleWebKit/537.36 (KHTML, like Gecko) Chrome/112.0.0.0 Safari/537.36 Edg/112.0.1722.48" etag="JK3RPg9ltHsmLi_Vvr9J" version="21.2.1" type="device" pages="4">
  <diagram name="Число" id="-FaNdaJi-jYGTAQw807s">
    <mxGraphModel dx="993" dy="581" grid="1" gridSize="10" guides="1" tooltips="1" connect="1" arrows="1" fold="1" page="1" pageScale="1" pageWidth="827" pageHeight="1169" math="0" shadow="0">
      <root>
        <mxCell id="0" />
        <mxCell id="1" parent="0" />
        <mxCell id="g2cR2aIbDtPU0na0KHwk-6" value="16 - [A, B, C, D, E, F]&lt;br&gt;RD - [&#39;*&#39;, &#39;\&#39;, &#39;-&#39;,&#39;+&#39; &#39;\t&#39;, &#39;\n&#39;, &#39; &#39;, &#39;;&#39; ]&lt;br&gt;a - любой другой символ" style="text;html=1;align=center;verticalAlign=middle;resizable=0;points=[];autosize=1;strokeColor=none;fillColor=none;" vertex="1" parent="1">
          <mxGeometry x="5" y="20.04" width="180" height="60" as="geometry" />
        </mxCell>
        <mxCell id="g2cR2aIbDtPU0na0KHwk-30" style="edgeStyle=orthogonalEdgeStyle;rounded=0;orthogonalLoop=1;jettySize=auto;html=1;exitX=1;exitY=0.5;exitDx=0;exitDy=0;entryX=0.5;entryY=1;entryDx=0;entryDy=0;" edge="1" parent="1" source="g2cR2aIbDtPU0na0KHwk-43" target="g2cR2aIbDtPU0na0KHwk-15">
          <mxGeometry relative="1" as="geometry">
            <mxPoint x="150" y="167" as="sourcePoint" />
            <mxPoint x="370" y="227" as="targetPoint" />
            <Array as="points">
              <mxPoint x="315" y="192" />
            </Array>
          </mxGeometry>
        </mxCell>
        <mxCell id="g2cR2aIbDtPU0na0KHwk-31" value="[0..9], [16]" style="text;html=1;align=center;verticalAlign=middle;resizable=0;points=[];autosize=1;strokeColor=none;fillColor=none;" vertex="1" parent="1">
          <mxGeometry x="175" y="187" width="80" height="30" as="geometry" />
        </mxCell>
        <mxCell id="g2cR2aIbDtPU0na0KHwk-32" value="" style="group" vertex="1" connectable="0" parent="1">
          <mxGeometry x="230" y="80.03999999999999" width="170" height="86.96000000000001" as="geometry" />
        </mxCell>
        <mxCell id="g2cR2aIbDtPU0na0KHwk-33" style="edgeStyle=orthogonalEdgeStyle;rounded=0;orthogonalLoop=1;jettySize=auto;html=1;exitX=0.25;exitY=0;exitDx=0;exitDy=0;" edge="1" parent="g2cR2aIbDtPU0na0KHwk-32" source="g2cR2aIbDtPU0na0KHwk-15">
          <mxGeometry relative="1" as="geometry">
            <mxPoint x="130" y="-0.03999999999999204" as="targetPoint" />
          </mxGeometry>
        </mxCell>
        <mxCell id="g2cR2aIbDtPU0na0KHwk-15" value="do: запись символа в буфер&lt;br&gt;exit: очистка буфера" style="rounded=1;whiteSpace=wrap;html=1;" vertex="1" parent="g2cR2aIbDtPU0na0KHwk-32">
          <mxGeometry y="0.003478260869570704" width="170" height="86.95652173913044" as="geometry" />
        </mxCell>
        <mxCell id="g2cR2aIbDtPU0na0KHwk-16" value="" style="endArrow=none;html=1;rounded=0;exitX=0;exitY=0.25;exitDx=0;exitDy=0;entryX=1;entryY=0.25;entryDx=0;entryDy=0;" edge="1" parent="g2cR2aIbDtPU0na0KHwk-32" source="g2cR2aIbDtPU0na0KHwk-15" target="g2cR2aIbDtPU0na0KHwk-15">
          <mxGeometry width="50" height="50" relative="1" as="geometry">
            <mxPoint x="48.571428571428555" y="0.003478260869570704" as="sourcePoint" />
            <mxPoint x="109.28571428571428" y="-72.46028985507246" as="targetPoint" />
          </mxGeometry>
        </mxCell>
        <mxCell id="g2cR2aIbDtPU0na0KHwk-17" value="Число" style="text;html=1;strokeColor=none;fillColor=none;align=center;verticalAlign=middle;whiteSpace=wrap;rounded=0;" vertex="1" parent="g2cR2aIbDtPU0na0KHwk-32">
          <mxGeometry x="53.21000000000001" width="63.57" height="20" as="geometry" />
        </mxCell>
        <mxCell id="g2cR2aIbDtPU0na0KHwk-34" value="[0..9], [16]" style="text;html=1;align=center;verticalAlign=middle;resizable=0;points=[];autosize=1;strokeColor=none;fillColor=none;" vertex="1" parent="1">
          <mxGeometry x="275" y="35.04" width="80" height="30" as="geometry" />
        </mxCell>
        <mxCell id="g2cR2aIbDtPU0na0KHwk-41" value="" style="group" vertex="1" connectable="0" parent="1">
          <mxGeometry x="30" y="157" width="120" height="70" as="geometry" />
        </mxCell>
        <mxCell id="g2cR2aIbDtPU0na0KHwk-43" value="do: создать токен разделитель" style="rounded=1;whiteSpace=wrap;html=1;" vertex="1" parent="g2cR2aIbDtPU0na0KHwk-41">
          <mxGeometry y="0.002799888004484237" width="120" height="69.99720011199551" as="geometry" />
        </mxCell>
        <mxCell id="g2cR2aIbDtPU0na0KHwk-44" value="" style="endArrow=none;html=1;rounded=0;exitX=0;exitY=0.25;exitDx=0;exitDy=0;entryX=1;entryY=0.25;entryDx=0;entryDy=0;" edge="1" parent="g2cR2aIbDtPU0na0KHwk-41" source="g2cR2aIbDtPU0na0KHwk-43" target="g2cR2aIbDtPU0na0KHwk-43">
          <mxGeometry width="50" height="50" relative="1" as="geometry">
            <mxPoint x="34.28571428571427" y="0.002799888004484237" as="sourcePoint" />
            <mxPoint x="77.14285714285714" y="-58.32820020532511" as="targetPoint" />
          </mxGeometry>
        </mxCell>
        <mxCell id="g2cR2aIbDtPU0na0KHwk-45" value="Начало" style="text;html=1;strokeColor=none;fillColor=none;align=center;verticalAlign=middle;whiteSpace=wrap;rounded=0;" vertex="1" parent="g2cR2aIbDtPU0na0KHwk-41">
          <mxGeometry x="37.56" width="44.87294117647059" height="16.09935602575897" as="geometry" />
        </mxCell>
        <mxCell id="g2cR2aIbDtPU0na0KHwk-47" style="edgeStyle=orthogonalEdgeStyle;rounded=0;orthogonalLoop=1;jettySize=auto;html=1;exitX=0;exitY=0.5;exitDx=0;exitDy=0;entryX=0.5;entryY=0;entryDx=0;entryDy=0;" edge="1" parent="1" source="g2cR2aIbDtPU0na0KHwk-15" target="g2cR2aIbDtPU0na0KHwk-45">
          <mxGeometry relative="1" as="geometry" />
        </mxCell>
        <mxCell id="g2cR2aIbDtPU0na0KHwk-48" value="[RD], создать токен число" style="text;html=1;align=center;verticalAlign=middle;resizable=0;points=[];autosize=1;strokeColor=none;fillColor=none;" vertex="1" parent="1">
          <mxGeometry x="60" y="95" width="170" height="30" as="geometry" />
        </mxCell>
        <mxCell id="g2cR2aIbDtPU0na0KHwk-55" value="" style="group" vertex="1" connectable="0" parent="1">
          <mxGeometry x="430" y="207" width="170" height="86.96000000000001" as="geometry" />
        </mxCell>
        <mxCell id="g2cR2aIbDtPU0na0KHwk-57" value="do: сообщение об ошибке,&lt;br&gt;очистка буфера" style="rounded=1;whiteSpace=wrap;html=1;" vertex="1" parent="g2cR2aIbDtPU0na0KHwk-55">
          <mxGeometry y="0.003478260869570704" width="170" height="86.95652173913044" as="geometry" />
        </mxCell>
        <mxCell id="g2cR2aIbDtPU0na0KHwk-58" value="" style="endArrow=none;html=1;rounded=0;exitX=0;exitY=0.25;exitDx=0;exitDy=0;entryX=1;entryY=0.25;entryDx=0;entryDy=0;" edge="1" parent="g2cR2aIbDtPU0na0KHwk-55" source="g2cR2aIbDtPU0na0KHwk-57" target="g2cR2aIbDtPU0na0KHwk-57">
          <mxGeometry width="50" height="50" relative="1" as="geometry">
            <mxPoint x="48.571428571428555" y="0.003478260869570704" as="sourcePoint" />
            <mxPoint x="109.28571428571428" y="-72.46028985507246" as="targetPoint" />
          </mxGeometry>
        </mxCell>
        <mxCell id="g2cR2aIbDtPU0na0KHwk-59" value="Ошибка" style="text;html=1;strokeColor=none;fillColor=none;align=center;verticalAlign=middle;whiteSpace=wrap;rounded=0;" vertex="1" parent="g2cR2aIbDtPU0na0KHwk-55">
          <mxGeometry x="53.21000000000001" width="63.57" height="20" as="geometry" />
        </mxCell>
        <mxCell id="g2cR2aIbDtPU0na0KHwk-60" style="edgeStyle=orthogonalEdgeStyle;rounded=0;orthogonalLoop=1;jettySize=auto;html=1;exitX=1;exitY=0.5;exitDx=0;exitDy=0;entryX=0.5;entryY=0;entryDx=0;entryDy=0;" edge="1" parent="1" source="g2cR2aIbDtPU0na0KHwk-15" target="g2cR2aIbDtPU0na0KHwk-59">
          <mxGeometry relative="1" as="geometry" />
        </mxCell>
        <mxCell id="g2cR2aIbDtPU0na0KHwk-61" value="[а]" style="text;html=1;align=center;verticalAlign=middle;resizable=0;points=[];autosize=1;strokeColor=none;fillColor=none;" vertex="1" parent="1">
          <mxGeometry x="440" y="95" width="40" height="30" as="geometry" />
        </mxCell>
      </root>
    </mxGraphModel>
  </diagram>
  <diagram id="Ce51xqV-99f6zPZpt35O" name="слово">
    <mxGraphModel dx="993" dy="581" grid="1" gridSize="10" guides="1" tooltips="1" connect="1" arrows="1" fold="1" page="1" pageScale="1" pageWidth="827" pageHeight="1169" math="0" shadow="0">
      <root>
        <mxCell id="0" />
        <mxCell id="1" parent="0" />
        <mxCell id="4OqHlR-MOp9A3rrNsiLq-1" value="RD1 - [&#39;*&#39;, &#39;\&#39;, &#39;-&#39;, &#39;\t&#39;, &#39;\n&#39;, &#39; &#39;, &#39;;&#39; , &#39;(&#39;, &#39;)&#39;, &#39;&amp;gt;&#39;, &#39;&amp;lt;&#39;, &#39;=&#39;]&lt;br&gt;a - любой другой символ" style="text;html=1;align=left;verticalAlign=middle;resizable=0;points=[];autosize=1;strokeColor=none;fillColor=none;" vertex="1" parent="1">
          <mxGeometry x="10" y="15.04" width="260" height="40" as="geometry" />
        </mxCell>
        <mxCell id="4OqHlR-MOp9A3rrNsiLq-2" style="edgeStyle=orthogonalEdgeStyle;rounded=0;orthogonalLoop=1;jettySize=auto;html=1;exitX=1;exitY=0.5;exitDx=0;exitDy=0;entryX=0.5;entryY=1;entryDx=0;entryDy=0;" edge="1" parent="1" source="4OqHlR-MOp9A3rrNsiLq-11" target="4OqHlR-MOp9A3rrNsiLq-6">
          <mxGeometry relative="1" as="geometry">
            <mxPoint x="150" y="167" as="sourcePoint" />
            <mxPoint x="370" y="227" as="targetPoint" />
            <Array as="points">
              <mxPoint x="315" y="192" />
            </Array>
          </mxGeometry>
        </mxCell>
        <mxCell id="4OqHlR-MOp9A3rrNsiLq-3" value="[буква]" style="text;html=1;align=center;verticalAlign=middle;resizable=0;points=[];autosize=1;strokeColor=none;fillColor=none;" vertex="1" parent="1">
          <mxGeometry x="185" y="187" width="60" height="30" as="geometry" />
        </mxCell>
        <mxCell id="4OqHlR-MOp9A3rrNsiLq-4" value="" style="group" vertex="1" connectable="0" parent="1">
          <mxGeometry x="230" y="80.03999999999999" width="170" height="86.96000000000001" as="geometry" />
        </mxCell>
        <mxCell id="4OqHlR-MOp9A3rrNsiLq-5" style="edgeStyle=orthogonalEdgeStyle;rounded=0;orthogonalLoop=1;jettySize=auto;html=1;exitX=0.25;exitY=0;exitDx=0;exitDy=0;" edge="1" parent="4OqHlR-MOp9A3rrNsiLq-4" source="4OqHlR-MOp9A3rrNsiLq-6">
          <mxGeometry relative="1" as="geometry">
            <mxPoint x="130" y="-0.03999999999999204" as="targetPoint" />
          </mxGeometry>
        </mxCell>
        <mxCell id="4OqHlR-MOp9A3rrNsiLq-6" value="do: запись символа в буфер&lt;br&gt;exit: очистка буфера" style="rounded=1;whiteSpace=wrap;html=1;" vertex="1" parent="4OqHlR-MOp9A3rrNsiLq-4">
          <mxGeometry y="0.003478260869570704" width="170" height="86.95652173913044" as="geometry" />
        </mxCell>
        <mxCell id="4OqHlR-MOp9A3rrNsiLq-7" value="" style="endArrow=none;html=1;rounded=0;exitX=0;exitY=0.25;exitDx=0;exitDy=0;entryX=1;entryY=0.25;entryDx=0;entryDy=0;" edge="1" parent="4OqHlR-MOp9A3rrNsiLq-4" source="4OqHlR-MOp9A3rrNsiLq-6" target="4OqHlR-MOp9A3rrNsiLq-6">
          <mxGeometry width="50" height="50" relative="1" as="geometry">
            <mxPoint x="48.571428571428555" y="0.003478260869570704" as="sourcePoint" />
            <mxPoint x="109.28571428571428" y="-72.46028985507246" as="targetPoint" />
          </mxGeometry>
        </mxCell>
        <mxCell id="4OqHlR-MOp9A3rrNsiLq-8" value="Слово" style="text;html=1;strokeColor=none;fillColor=none;align=center;verticalAlign=middle;whiteSpace=wrap;rounded=0;" vertex="1" parent="4OqHlR-MOp9A3rrNsiLq-4">
          <mxGeometry x="53.21000000000001" width="63.57" height="20" as="geometry" />
        </mxCell>
        <mxCell id="4OqHlR-MOp9A3rrNsiLq-9" value="[a]" style="text;html=1;align=center;verticalAlign=middle;resizable=0;points=[];autosize=1;strokeColor=none;fillColor=none;" vertex="1" parent="1">
          <mxGeometry x="295" y="35.04" width="40" height="30" as="geometry" />
        </mxCell>
        <mxCell id="4OqHlR-MOp9A3rrNsiLq-10" value="" style="group" vertex="1" connectable="0" parent="1">
          <mxGeometry x="30" y="157" width="120" height="70" as="geometry" />
        </mxCell>
        <mxCell id="4OqHlR-MOp9A3rrNsiLq-11" value="do: создание токена разделитель" style="rounded=1;whiteSpace=wrap;html=1;" vertex="1" parent="4OqHlR-MOp9A3rrNsiLq-10">
          <mxGeometry y="0.002799888004484237" width="120" height="69.99720011199551" as="geometry" />
        </mxCell>
        <mxCell id="4OqHlR-MOp9A3rrNsiLq-12" value="" style="endArrow=none;html=1;rounded=0;exitX=0;exitY=0.25;exitDx=0;exitDy=0;entryX=1;entryY=0.25;entryDx=0;entryDy=0;" edge="1" parent="4OqHlR-MOp9A3rrNsiLq-10" source="4OqHlR-MOp9A3rrNsiLq-11" target="4OqHlR-MOp9A3rrNsiLq-11">
          <mxGeometry width="50" height="50" relative="1" as="geometry">
            <mxPoint x="34.28571428571427" y="0.002799888004484237" as="sourcePoint" />
            <mxPoint x="77.14285714285714" y="-58.32820020532511" as="targetPoint" />
          </mxGeometry>
        </mxCell>
        <mxCell id="4OqHlR-MOp9A3rrNsiLq-13" value="Начало" style="text;html=1;strokeColor=none;fillColor=none;align=center;verticalAlign=middle;whiteSpace=wrap;rounded=0;" vertex="1" parent="4OqHlR-MOp9A3rrNsiLq-10">
          <mxGeometry x="37.56" width="44.87294117647059" height="16.09935602575897" as="geometry" />
        </mxCell>
        <mxCell id="Vw_pq-2iSd1U1v_fBbTp-1" value="" style="group" vertex="1" connectable="0" parent="1">
          <mxGeometry x="430" y="200" width="170" height="86.96000000000001" as="geometry" />
        </mxCell>
        <mxCell id="Vw_pq-2iSd1U1v_fBbTp-8" style="edgeStyle=orthogonalEdgeStyle;rounded=0;orthogonalLoop=1;jettySize=auto;html=1;exitX=0;exitY=0.5;exitDx=0;exitDy=0;" edge="1" parent="Vw_pq-2iSd1U1v_fBbTp-1" source="Vw_pq-2iSd1U1v_fBbTp-3">
          <mxGeometry relative="1" as="geometry">
            <mxPoint x="-330" y="30" as="targetPoint" />
            <Array as="points">
              <mxPoint x="-330" y="44" />
            </Array>
          </mxGeometry>
        </mxCell>
        <mxCell id="Vw_pq-2iSd1U1v_fBbTp-3" value="do: сравнение буфера со списоком кодового слова&lt;br&gt;exit: очистка буфера" style="rounded=1;whiteSpace=wrap;html=1;" vertex="1" parent="Vw_pq-2iSd1U1v_fBbTp-1">
          <mxGeometry y="0.003478260869570704" width="170" height="86.95652173913044" as="geometry" />
        </mxCell>
        <mxCell id="Vw_pq-2iSd1U1v_fBbTp-4" value="" style="endArrow=none;html=1;rounded=0;exitX=0;exitY=0.25;exitDx=0;exitDy=0;entryX=1;entryY=0.25;entryDx=0;entryDy=0;" edge="1" parent="Vw_pq-2iSd1U1v_fBbTp-1" source="Vw_pq-2iSd1U1v_fBbTp-3" target="Vw_pq-2iSd1U1v_fBbTp-3">
          <mxGeometry width="50" height="50" relative="1" as="geometry">
            <mxPoint x="48.571428571428555" y="0.003478260869570704" as="sourcePoint" />
            <mxPoint x="109.28571428571428" y="-72.46028985507246" as="targetPoint" />
          </mxGeometry>
        </mxCell>
        <mxCell id="Vw_pq-2iSd1U1v_fBbTp-5" value="Сравнение" style="text;html=1;strokeColor=none;fillColor=none;align=center;verticalAlign=middle;whiteSpace=wrap;rounded=0;" vertex="1" parent="Vw_pq-2iSd1U1v_fBbTp-1">
          <mxGeometry x="53.21000000000001" width="63.57" height="20" as="geometry" />
        </mxCell>
        <mxCell id="Vw_pq-2iSd1U1v_fBbTp-6" style="edgeStyle=orthogonalEdgeStyle;rounded=0;orthogonalLoop=1;jettySize=auto;html=1;exitX=1;exitY=0.5;exitDx=0;exitDy=0;entryX=0.5;entryY=0;entryDx=0;entryDy=0;" edge="1" parent="1" source="4OqHlR-MOp9A3rrNsiLq-6" target="Vw_pq-2iSd1U1v_fBbTp-5">
          <mxGeometry relative="1" as="geometry" />
        </mxCell>
        <mxCell id="Vw_pq-2iSd1U1v_fBbTp-7" value="[RD1]" style="text;html=1;align=center;verticalAlign=middle;resizable=0;points=[];autosize=1;strokeColor=none;fillColor=none;" vertex="1" parent="1">
          <mxGeometry x="425" y="98" width="50" height="30" as="geometry" />
        </mxCell>
        <mxCell id="Vw_pq-2iSd1U1v_fBbTp-9" value="[есть соответствие], создание токена кодовое слово" style="text;html=1;align=center;verticalAlign=middle;resizable=0;points=[];autosize=1;strokeColor=none;fillColor=none;" vertex="1" parent="1">
          <mxGeometry x="110" y="218" width="320" height="30" as="geometry" />
        </mxCell>
        <mxCell id="Vw_pq-2iSd1U1v_fBbTp-11" style="edgeStyle=orthogonalEdgeStyle;rounded=0;orthogonalLoop=1;jettySize=auto;html=1;exitX=0;exitY=0.75;exitDx=0;exitDy=0;entryX=0.25;entryY=1;entryDx=0;entryDy=0;" edge="1" parent="1" source="Vw_pq-2iSd1U1v_fBbTp-3" target="4OqHlR-MOp9A3rrNsiLq-11">
          <mxGeometry relative="1" as="geometry" />
        </mxCell>
        <mxCell id="Vw_pq-2iSd1U1v_fBbTp-12" value="[нет соответствия], создание токена идентификатор" style="text;html=1;align=center;verticalAlign=middle;resizable=0;points=[];autosize=1;strokeColor=none;fillColor=none;" vertex="1" parent="1">
          <mxGeometry x="85" y="256.96" width="310" height="30" as="geometry" />
        </mxCell>
        <mxCell id="Vw_pq-2iSd1U1v_fBbTp-13" style="edgeStyle=orthogonalEdgeStyle;rounded=0;orthogonalLoop=1;jettySize=auto;html=1;exitX=0.25;exitY=1;exitDx=0;exitDy=0;entryX=0;entryY=0.5;entryDx=0;entryDy=0;" edge="1" parent="1" source="Vw_pq-2iSd1U1v_fBbTp-3" target="4OqHlR-MOp9A3rrNsiLq-11">
          <mxGeometry relative="1" as="geometry" />
        </mxCell>
        <mxCell id="Vw_pq-2iSd1U1v_fBbTp-14" value="&lt;span style=&quot;color: rgb(0, 0, 0); font-family: Helvetica; font-size: 12px; font-style: normal; font-variant-ligatures: normal; font-variant-caps: normal; font-weight: 400; letter-spacing: normal; orphans: 2; text-align: center; text-indent: 0px; text-transform: none; widows: 2; word-spacing: 0px; -webkit-text-stroke-width: 0px; background-color: rgb(251, 251, 251); text-decoration-thickness: initial; text-decoration-style: initial; text-decoration-color: initial; float: none; display: inline !important;&quot;&gt;[н], создание токена лев_скобка,&lt;br&gt;[к], создание токена прав_скобка&lt;br&gt;&lt;/span&gt;" style="text;whiteSpace=wrap;html=1;" vertex="1" parent="1">
          <mxGeometry x="94" y="310" width="320" height="40" as="geometry" />
        </mxCell>
      </root>
    </mxGraphModel>
  </diagram>
  <diagram id="Blykep9uQv7Deb8Cek7l" name="разделитель">
    <mxGraphModel dx="993" dy="581" grid="1" gridSize="10" guides="1" tooltips="1" connect="1" arrows="1" fold="1" page="1" pageScale="1" pageWidth="827" pageHeight="1169" math="0" shadow="0">
      <root>
        <mxCell id="0" />
        <mxCell id="1" parent="0" />
        <mxCell id="_HauFo0hC4ByGiSFNSpL-1" style="edgeStyle=orthogonalEdgeStyle;rounded=0;orthogonalLoop=1;jettySize=auto;html=1;exitX=1;exitY=0.5;exitDx=0;exitDy=0;entryX=0.5;entryY=1;entryDx=0;entryDy=0;" edge="1" parent="1" source="_HauFo0hC4ByGiSFNSpL-9" target="_HauFo0hC4ByGiSFNSpL-5">
          <mxGeometry relative="1" as="geometry">
            <mxPoint x="150" y="167" as="sourcePoint" />
            <mxPoint x="370" y="227" as="targetPoint" />
            <Array as="points">
              <mxPoint x="315" y="192" />
            </Array>
          </mxGeometry>
        </mxCell>
        <mxCell id="_HauFo0hC4ByGiSFNSpL-3" value="" style="group" vertex="1" connectable="0" parent="1">
          <mxGeometry x="230" y="80.03999999999999" width="170" height="86.96000000000001" as="geometry" />
        </mxCell>
        <mxCell id="_HauFo0hC4ByGiSFNSpL-4" style="edgeStyle=orthogonalEdgeStyle;rounded=0;orthogonalLoop=1;jettySize=auto;html=1;exitX=0.25;exitY=0;exitDx=0;exitDy=0;" edge="1" parent="_HauFo0hC4ByGiSFNSpL-3" source="_HauFo0hC4ByGiSFNSpL-5">
          <mxGeometry relative="1" as="geometry">
            <mxPoint x="130" y="-0.03999999999999204" as="targetPoint" />
          </mxGeometry>
        </mxCell>
        <mxCell id="_HauFo0hC4ByGiSFNSpL-5" value="do: запись символа в буфер&lt;br&gt;exit: очистка буфера" style="rounded=1;whiteSpace=wrap;html=1;" vertex="1" parent="_HauFo0hC4ByGiSFNSpL-3">
          <mxGeometry y="0.003478260869570704" width="170" height="86.95652173913044" as="geometry" />
        </mxCell>
        <mxCell id="_HauFo0hC4ByGiSFNSpL-6" value="" style="endArrow=none;html=1;rounded=0;exitX=0;exitY=0.25;exitDx=0;exitDy=0;entryX=1;entryY=0.25;entryDx=0;entryDy=0;" edge="1" parent="_HauFo0hC4ByGiSFNSpL-3" source="_HauFo0hC4ByGiSFNSpL-5" target="_HauFo0hC4ByGiSFNSpL-5">
          <mxGeometry width="50" height="50" relative="1" as="geometry">
            <mxPoint x="48.571428571428555" y="0.003478260869570704" as="sourcePoint" />
            <mxPoint x="109.28571428571428" y="-72.46028985507246" as="targetPoint" />
          </mxGeometry>
        </mxCell>
        <mxCell id="_HauFo0hC4ByGiSFNSpL-7" value="Число" style="text;html=1;strokeColor=none;fillColor=none;align=center;verticalAlign=middle;whiteSpace=wrap;rounded=0;" vertex="1" parent="_HauFo0hC4ByGiSFNSpL-3">
          <mxGeometry x="53.21000000000001" width="63.57" height="20" as="geometry" />
        </mxCell>
        <mxCell id="_HauFo0hC4ByGiSFNSpL-8" value="" style="group" vertex="1" connectable="0" parent="1">
          <mxGeometry x="30" y="157" width="120" height="70" as="geometry" />
        </mxCell>
        <mxCell id="_HauFo0hC4ByGiSFNSpL-9" value="" style="rounded=1;whiteSpace=wrap;html=1;" vertex="1" parent="_HauFo0hC4ByGiSFNSpL-8">
          <mxGeometry y="0.002799888004484237" width="120" height="69.99720011199551" as="geometry" />
        </mxCell>
        <mxCell id="_HauFo0hC4ByGiSFNSpL-10" value="" style="endArrow=none;html=1;rounded=0;exitX=0;exitY=0.25;exitDx=0;exitDy=0;entryX=1;entryY=0.25;entryDx=0;entryDy=0;" edge="1" parent="_HauFo0hC4ByGiSFNSpL-8" source="_HauFo0hC4ByGiSFNSpL-9" target="_HauFo0hC4ByGiSFNSpL-9">
          <mxGeometry width="50" height="50" relative="1" as="geometry">
            <mxPoint x="34.28571428571427" y="0.002799888004484237" as="sourcePoint" />
            <mxPoint x="77.14285714285714" y="-58.32820020532511" as="targetPoint" />
          </mxGeometry>
        </mxCell>
        <mxCell id="_HauFo0hC4ByGiSFNSpL-11" value="Начало" style="text;html=1;strokeColor=none;fillColor=none;align=center;verticalAlign=middle;whiteSpace=wrap;rounded=0;" vertex="1" parent="_HauFo0hC4ByGiSFNSpL-8">
          <mxGeometry x="37.56" width="44.87294117647059" height="16.09935602575897" as="geometry" />
        </mxCell>
        <mxCell id="_HauFo0hC4ByGiSFNSpL-14" value="" style="group" vertex="1" connectable="0" parent="1">
          <mxGeometry x="610" y="280" width="170" height="86.96000000000001" as="geometry" />
        </mxCell>
        <mxCell id="_HauFo0hC4ByGiSFNSpL-15" value="do: сообщение об ошибке,&lt;br&gt;очистка буфера" style="rounded=1;whiteSpace=wrap;html=1;" vertex="1" parent="_HauFo0hC4ByGiSFNSpL-14">
          <mxGeometry y="0.003478260869570704" width="170" height="86.95652173913044" as="geometry" />
        </mxCell>
        <mxCell id="_HauFo0hC4ByGiSFNSpL-16" value="" style="endArrow=none;html=1;rounded=0;exitX=0;exitY=0.25;exitDx=0;exitDy=0;entryX=1;entryY=0.25;entryDx=0;entryDy=0;" edge="1" parent="_HauFo0hC4ByGiSFNSpL-14" source="_HauFo0hC4ByGiSFNSpL-15" target="_HauFo0hC4ByGiSFNSpL-15">
          <mxGeometry width="50" height="50" relative="1" as="geometry">
            <mxPoint x="48.571428571428555" y="0.003478260869570704" as="sourcePoint" />
            <mxPoint x="109.28571428571428" y="-72.46028985507246" as="targetPoint" />
          </mxGeometry>
        </mxCell>
        <mxCell id="_HauFo0hC4ByGiSFNSpL-17" value="Ошибка" style="text;html=1;strokeColor=none;fillColor=none;align=center;verticalAlign=middle;whiteSpace=wrap;rounded=0;" vertex="1" parent="_HauFo0hC4ByGiSFNSpL-14">
          <mxGeometry x="53.21000000000001" width="63.57" height="20" as="geometry" />
        </mxCell>
        <mxCell id="_HauFo0hC4ByGiSFNSpL-18" style="edgeStyle=orthogonalEdgeStyle;rounded=0;orthogonalLoop=1;jettySize=auto;html=1;exitX=1;exitY=0.5;exitDx=0;exitDy=0;" edge="1" parent="1" source="_HauFo0hC4ByGiSFNSpL-5">
          <mxGeometry relative="1" as="geometry">
            <mxPoint x="525" y="170" as="targetPoint" />
          </mxGeometry>
        </mxCell>
        <mxCell id="_HauFo0hC4ByGiSFNSpL-19" value="[&#39; &#39;, &#39;\t&#39;, &#39;\n&#39;]" style="text;html=1;align=center;verticalAlign=middle;resizable=0;points=[];autosize=1;strokeColor=none;fillColor=none;" vertex="1" parent="1">
          <mxGeometry x="420" y="95" width="80" height="30" as="geometry" />
        </mxCell>
        <mxCell id="_HauFo0hC4ByGiSFNSpL-21" value="[=, !, &amp;lt;, &amp;gt;]" style="text;html=1;align=center;verticalAlign=middle;resizable=0;points=[];autosize=1;strokeColor=none;fillColor=none;" vertex="1" parent="1">
          <mxGeometry x="160" y="158" width="70" height="30" as="geometry" />
        </mxCell>
        <mxCell id="_HauFo0hC4ByGiSFNSpL-22" value="допустимые&amp;nbsp; = {&#39;==&#39;, &#39;!=&#39;, &#39;&amp;lt;=&#39;, &#39;&amp;gt;=&#39;}&lt;br&gt;&lt;div style=&quot;text-align: left;&quot;&gt;&lt;span style=&quot;background-color: initial;&quot;&gt;a - любой символ&lt;/span&gt;&lt;/div&gt;&lt;div style=&quot;text-align: left;&quot;&gt;&lt;span style=&quot;background-color: initial;&quot;&gt;b - не сравнение&amp;nbsp;&lt;/span&gt;&lt;/div&gt;" style="text;html=1;align=center;verticalAlign=middle;resizable=0;points=[];autosize=1;strokeColor=none;fillColor=none;" vertex="1" parent="1">
          <mxGeometry x="10" y="8" width="210" height="60" as="geometry" />
        </mxCell>
        <mxCell id="_HauFo0hC4ByGiSFNSpL-23" value="[a]" style="text;html=1;align=center;verticalAlign=middle;resizable=0;points=[];autosize=1;strokeColor=none;fillColor=none;" vertex="1" parent="1">
          <mxGeometry x="290" y="38" width="40" height="30" as="geometry" />
        </mxCell>
        <mxCell id="_HauFo0hC4ByGiSFNSpL-29" value="" style="group" vertex="1" connectable="0" parent="1">
          <mxGeometry x="440" y="170" width="170" height="86.96000000000001" as="geometry" />
        </mxCell>
        <mxCell id="_HauFo0hC4ByGiSFNSpL-33" style="edgeStyle=orthogonalEdgeStyle;rounded=0;orthogonalLoop=1;jettySize=auto;html=1;exitX=1;exitY=0.5;exitDx=0;exitDy=0;" edge="1" parent="_HauFo0hC4ByGiSFNSpL-29" source="_HauFo0hC4ByGiSFNSpL-30">
          <mxGeometry relative="1" as="geometry">
            <mxPoint x="250" y="110" as="targetPoint" />
          </mxGeometry>
        </mxCell>
        <mxCell id="_HauFo0hC4ByGiSFNSpL-30" value="do: сравнение буфера со список допустимых комбинаций" style="rounded=1;whiteSpace=wrap;html=1;" vertex="1" parent="_HauFo0hC4ByGiSFNSpL-29">
          <mxGeometry y="0.003478260869570704" width="170" height="86.95652173913044" as="geometry" />
        </mxCell>
        <mxCell id="_HauFo0hC4ByGiSFNSpL-31" value="" style="endArrow=none;html=1;rounded=0;exitX=0;exitY=0.25;exitDx=0;exitDy=0;entryX=1;entryY=0.25;entryDx=0;entryDy=0;" edge="1" parent="_HauFo0hC4ByGiSFNSpL-29" source="_HauFo0hC4ByGiSFNSpL-30" target="_HauFo0hC4ByGiSFNSpL-30">
          <mxGeometry width="50" height="50" relative="1" as="geometry">
            <mxPoint x="48.571428571428555" y="0.003478260869570704" as="sourcePoint" />
            <mxPoint x="109.28571428571428" y="-72.46028985507246" as="targetPoint" />
          </mxGeometry>
        </mxCell>
        <mxCell id="_HauFo0hC4ByGiSFNSpL-32" value="Сравнение" style="text;html=1;strokeColor=none;fillColor=none;align=center;verticalAlign=middle;whiteSpace=wrap;rounded=0;" vertex="1" parent="_HauFo0hC4ByGiSFNSpL-29">
          <mxGeometry x="53.21000000000001" width="63.57" height="20" as="geometry" />
        </mxCell>
        <mxCell id="_HauFo0hC4ByGiSFNSpL-34" value="[нет соответствия]" style="text;html=1;align=center;verticalAlign=middle;resizable=0;points=[];autosize=1;strokeColor=none;fillColor=none;" vertex="1" parent="1">
          <mxGeometry x="610" y="188" width="130" height="30" as="geometry" />
        </mxCell>
        <mxCell id="_HauFo0hC4ByGiSFNSpL-35" style="edgeStyle=orthogonalEdgeStyle;rounded=0;orthogonalLoop=1;jettySize=auto;html=1;exitX=0;exitY=0.75;exitDx=0;exitDy=0;entryX=0.5;entryY=1;entryDx=0;entryDy=0;" edge="1" parent="1" source="_HauFo0hC4ByGiSFNSpL-30" target="_HauFo0hC4ByGiSFNSpL-9">
          <mxGeometry relative="1" as="geometry">
            <Array as="points">
              <mxPoint x="410" y="235" />
              <mxPoint x="410" y="280" />
              <mxPoint x="90" y="280" />
            </Array>
          </mxGeometry>
        </mxCell>
        <mxCell id="_HauFo0hC4ByGiSFNSpL-36" value="[есть соотвествие], создание токена сравнение" style="text;html=1;align=center;verticalAlign=middle;resizable=0;points=[];autosize=1;strokeColor=none;fillColor=none;" vertex="1" parent="1">
          <mxGeometry x="115" y="248" width="290" height="30" as="geometry" />
        </mxCell>
      </root>
    </mxGraphModel>
  </diagram>
  <diagram id="Ph5eA79w_tv8mjzvI_7O" name="общая">
    <mxGraphModel dx="993" dy="581" grid="1" gridSize="10" guides="1" tooltips="1" connect="1" arrows="1" fold="1" page="1" pageScale="1" pageWidth="827" pageHeight="1169" math="0" shadow="0">
      <root>
        <mxCell id="0" />
        <mxCell id="1" parent="0" />
        <mxCell id="dAqLtwF7J94JJw8BUnHf-1" value="16 - [A, B, C, D, E, F]&lt;br&gt;RD - [&#39;*&#39;, &#39;\&#39;, &#39;-&#39;,&#39;+&#39; &#39;\t&#39;, &#39;\n&#39;, &#39; &#39;, &#39;;&#39; ]&lt;br&gt;a - любой другой символ&lt;br&gt;допустимые&amp;nbsp; = {&#39;==&#39;, &#39;!=&#39;, &#39;&amp;lt;=&#39;, &#39;&amp;gt;=&#39;}&lt;br&gt;&lt;div style=&quot;border-color: var(--border-color);&quot;&gt;&lt;span style=&quot;border-color: var(--border-color); background-color: initial;&quot;&gt;b - не сравнение&amp;nbsp;&lt;/span&gt;&lt;/div&gt;&lt;div style=&quot;border-color: var(--border-color);&quot;&gt;&lt;span style=&quot;border-color: var(--border-color); background-color: initial;&quot;&gt;RD1 - [&#39;*&#39;, &#39;\&#39;, &#39;-&#39;, &#39;\t&#39;, &#39;\n&#39;, &#39; &#39;, &#39;;&#39; , &#39;(&#39;, &#39;)&#39;, &#39;&amp;gt;&#39;, &#39;&amp;lt;&#39;, &#39;=&#39;]&lt;br&gt;&lt;/span&gt;&lt;/div&gt;" style="text;html=1;align=left;verticalAlign=middle;resizable=0;points=[];autosize=1;strokeColor=none;fillColor=none;" vertex="1" parent="1">
          <mxGeometry x="550" y="10" width="260" height="100" as="geometry" />
        </mxCell>
        <mxCell id="dAqLtwF7J94JJw8BUnHf-2" style="edgeStyle=orthogonalEdgeStyle;rounded=0;orthogonalLoop=1;jettySize=auto;html=1;exitX=1;exitY=0.5;exitDx=0;exitDy=0;entryX=0.5;entryY=1;entryDx=0;entryDy=0;" edge="1" parent="1" source="dAqLtwF7J94JJw8BUnHf-11" target="dAqLtwF7J94JJw8BUnHf-6">
          <mxGeometry relative="1" as="geometry">
            <mxPoint x="150" y="167" as="sourcePoint" />
            <mxPoint x="370" y="227" as="targetPoint" />
            <Array as="points">
              <mxPoint x="315" y="192" />
            </Array>
          </mxGeometry>
        </mxCell>
        <mxCell id="dAqLtwF7J94JJw8BUnHf-3" value="[0..9], [16]" style="text;html=1;align=center;verticalAlign=middle;resizable=0;points=[];autosize=1;strokeColor=none;fillColor=none;" vertex="1" parent="1">
          <mxGeometry x="175" y="187" width="80" height="30" as="geometry" />
        </mxCell>
        <mxCell id="dAqLtwF7J94JJw8BUnHf-4" value="" style="group" vertex="1" connectable="0" parent="1">
          <mxGeometry x="230" y="80.03999999999999" width="170" height="86.96000000000001" as="geometry" />
        </mxCell>
        <mxCell id="dAqLtwF7J94JJw8BUnHf-5" style="edgeStyle=orthogonalEdgeStyle;rounded=0;orthogonalLoop=1;jettySize=auto;html=1;exitX=0.25;exitY=0;exitDx=0;exitDy=0;" edge="1" parent="dAqLtwF7J94JJw8BUnHf-4" source="dAqLtwF7J94JJw8BUnHf-6">
          <mxGeometry relative="1" as="geometry">
            <mxPoint x="130" y="-0.03999999999999204" as="targetPoint" />
          </mxGeometry>
        </mxCell>
        <mxCell id="dAqLtwF7J94JJw8BUnHf-6" value="do: запись символа в буфер&lt;br&gt;exit: очистка буфера" style="rounded=1;whiteSpace=wrap;html=1;" vertex="1" parent="dAqLtwF7J94JJw8BUnHf-4">
          <mxGeometry y="0.003478260869570704" width="170" height="86.95652173913044" as="geometry" />
        </mxCell>
        <mxCell id="dAqLtwF7J94JJw8BUnHf-7" value="" style="endArrow=none;html=1;rounded=0;exitX=0;exitY=0.25;exitDx=0;exitDy=0;entryX=1;entryY=0.25;entryDx=0;entryDy=0;" edge="1" parent="dAqLtwF7J94JJw8BUnHf-4" source="dAqLtwF7J94JJw8BUnHf-6" target="dAqLtwF7J94JJw8BUnHf-6">
          <mxGeometry width="50" height="50" relative="1" as="geometry">
            <mxPoint x="48.571428571428555" y="0.003478260869570704" as="sourcePoint" />
            <mxPoint x="109.28571428571428" y="-72.46028985507246" as="targetPoint" />
          </mxGeometry>
        </mxCell>
        <mxCell id="dAqLtwF7J94JJw8BUnHf-8" value="Число" style="text;html=1;strokeColor=none;fillColor=none;align=center;verticalAlign=middle;whiteSpace=wrap;rounded=0;" vertex="1" parent="dAqLtwF7J94JJw8BUnHf-4">
          <mxGeometry x="53.21000000000001" width="63.57" height="20" as="geometry" />
        </mxCell>
        <mxCell id="dAqLtwF7J94JJw8BUnHf-9" value="[0..9], [16]" style="text;html=1;align=center;verticalAlign=middle;resizable=0;points=[];autosize=1;strokeColor=none;fillColor=none;" vertex="1" parent="1">
          <mxGeometry x="275" y="35.04" width="80" height="30" as="geometry" />
        </mxCell>
        <mxCell id="dAqLtwF7J94JJw8BUnHf-10" value="" style="group" vertex="1" connectable="0" parent="1">
          <mxGeometry x="30" y="157" width="120" height="70" as="geometry" />
        </mxCell>
        <mxCell id="dAqLtwF7J94JJw8BUnHf-11" value="do: создать токен разделитель" style="rounded=1;whiteSpace=wrap;html=1;" vertex="1" parent="dAqLtwF7J94JJw8BUnHf-10">
          <mxGeometry y="0.002799888004484237" width="120" height="69.99720011199551" as="geometry" />
        </mxCell>
        <mxCell id="dAqLtwF7J94JJw8BUnHf-12" value="" style="endArrow=none;html=1;rounded=0;exitX=0;exitY=0.25;exitDx=0;exitDy=0;entryX=1;entryY=0.25;entryDx=0;entryDy=0;" edge="1" parent="dAqLtwF7J94JJw8BUnHf-10" source="dAqLtwF7J94JJw8BUnHf-11" target="dAqLtwF7J94JJw8BUnHf-11">
          <mxGeometry width="50" height="50" relative="1" as="geometry">
            <mxPoint x="34.28571428571427" y="0.002799888004484237" as="sourcePoint" />
            <mxPoint x="77.14285714285714" y="-58.32820020532511" as="targetPoint" />
          </mxGeometry>
        </mxCell>
        <mxCell id="dAqLtwF7J94JJw8BUnHf-13" value="Начало" style="text;html=1;strokeColor=none;fillColor=none;align=center;verticalAlign=middle;whiteSpace=wrap;rounded=0;" vertex="1" parent="dAqLtwF7J94JJw8BUnHf-10">
          <mxGeometry x="37.56" width="44.87294117647059" height="16.09935602575897" as="geometry" />
        </mxCell>
        <mxCell id="dAqLtwF7J94JJw8BUnHf-14" style="edgeStyle=orthogonalEdgeStyle;rounded=0;orthogonalLoop=1;jettySize=auto;html=1;exitX=0;exitY=0.5;exitDx=0;exitDy=0;entryX=0.5;entryY=0;entryDx=0;entryDy=0;" edge="1" parent="1" source="dAqLtwF7J94JJw8BUnHf-6" target="dAqLtwF7J94JJw8BUnHf-13">
          <mxGeometry relative="1" as="geometry" />
        </mxCell>
        <mxCell id="dAqLtwF7J94JJw8BUnHf-15" value="[RD], создать токен число" style="text;html=1;align=center;verticalAlign=middle;resizable=0;points=[];autosize=1;strokeColor=none;fillColor=none;" vertex="1" parent="1">
          <mxGeometry x="60" y="95" width="170" height="30" as="geometry" />
        </mxCell>
        <mxCell id="dAqLtwF7J94JJw8BUnHf-16" value="" style="group" vertex="1" connectable="0" parent="1">
          <mxGeometry x="430" y="207" width="170" height="86.96000000000001" as="geometry" />
        </mxCell>
        <mxCell id="dAqLtwF7J94JJw8BUnHf-17" value="do: сообщение об ошибке,&lt;br&gt;очистка буфера" style="rounded=1;whiteSpace=wrap;html=1;" vertex="1" parent="dAqLtwF7J94JJw8BUnHf-16">
          <mxGeometry y="0.003478260869570704" width="170" height="86.95652173913044" as="geometry" />
        </mxCell>
        <mxCell id="dAqLtwF7J94JJw8BUnHf-18" value="" style="endArrow=none;html=1;rounded=0;exitX=0;exitY=0.25;exitDx=0;exitDy=0;entryX=1;entryY=0.25;entryDx=0;entryDy=0;" edge="1" parent="dAqLtwF7J94JJw8BUnHf-16" source="dAqLtwF7J94JJw8BUnHf-17" target="dAqLtwF7J94JJw8BUnHf-17">
          <mxGeometry width="50" height="50" relative="1" as="geometry">
            <mxPoint x="48.571428571428555" y="0.003478260869570704" as="sourcePoint" />
            <mxPoint x="109.28571428571428" y="-72.46028985507246" as="targetPoint" />
          </mxGeometry>
        </mxCell>
        <mxCell id="dAqLtwF7J94JJw8BUnHf-19" value="Ошибка" style="text;html=1;strokeColor=none;fillColor=none;align=center;verticalAlign=middle;whiteSpace=wrap;rounded=0;" vertex="1" parent="dAqLtwF7J94JJw8BUnHf-16">
          <mxGeometry x="53.21000000000001" width="63.57" height="20" as="geometry" />
        </mxCell>
        <mxCell id="dAqLtwF7J94JJw8BUnHf-20" style="edgeStyle=orthogonalEdgeStyle;rounded=0;orthogonalLoop=1;jettySize=auto;html=1;exitX=1;exitY=0.5;exitDx=0;exitDy=0;entryX=0.5;entryY=0;entryDx=0;entryDy=0;" edge="1" parent="1" source="dAqLtwF7J94JJw8BUnHf-6" target="dAqLtwF7J94JJw8BUnHf-19">
          <mxGeometry relative="1" as="geometry" />
        </mxCell>
        <mxCell id="dAqLtwF7J94JJw8BUnHf-21" value="[а]" style="text;html=1;align=center;verticalAlign=middle;resizable=0;points=[];autosize=1;strokeColor=none;fillColor=none;" vertex="1" parent="1">
          <mxGeometry x="440" y="95" width="40" height="30" as="geometry" />
        </mxCell>
        <mxCell id="xFK15hoBPHHc_hZM-27o-2" value="[буква]" style="text;html=1;align=center;verticalAlign=middle;resizable=0;points=[];autosize=1;strokeColor=none;fillColor=none;" vertex="1" parent="1">
          <mxGeometry x="170" y="332.96000000000004" width="60" height="30" as="geometry" />
        </mxCell>
        <mxCell id="xFK15hoBPHHc_hZM-27o-3" value="" style="group" vertex="1" connectable="0" parent="1">
          <mxGeometry x="250" y="315" width="170" height="86.96000000000001" as="geometry" />
        </mxCell>
        <mxCell id="xFK15hoBPHHc_hZM-27o-4" style="edgeStyle=orthogonalEdgeStyle;rounded=0;orthogonalLoop=1;jettySize=auto;html=1;exitX=0.25;exitY=0;exitDx=0;exitDy=0;" edge="1" parent="xFK15hoBPHHc_hZM-27o-3" source="xFK15hoBPHHc_hZM-27o-5">
          <mxGeometry relative="1" as="geometry">
            <mxPoint x="130" y="-0.03999999999999204" as="targetPoint" />
          </mxGeometry>
        </mxCell>
        <mxCell id="xFK15hoBPHHc_hZM-27o-5" value="do: запись символа в буфер&lt;br&gt;exit: очистка буфера" style="rounded=1;whiteSpace=wrap;html=1;" vertex="1" parent="xFK15hoBPHHc_hZM-27o-3">
          <mxGeometry y="0.003478260869570704" width="170" height="86.95652173913044" as="geometry" />
        </mxCell>
        <mxCell id="xFK15hoBPHHc_hZM-27o-6" value="" style="endArrow=none;html=1;rounded=0;exitX=0;exitY=0.25;exitDx=0;exitDy=0;entryX=1;entryY=0.25;entryDx=0;entryDy=0;" edge="1" parent="xFK15hoBPHHc_hZM-27o-3" source="xFK15hoBPHHc_hZM-27o-5" target="xFK15hoBPHHc_hZM-27o-5">
          <mxGeometry width="50" height="50" relative="1" as="geometry">
            <mxPoint x="48.571428571428555" y="0.003478260869570704" as="sourcePoint" />
            <mxPoint x="109.28571428571428" y="-72.46028985507246" as="targetPoint" />
          </mxGeometry>
        </mxCell>
        <mxCell id="xFK15hoBPHHc_hZM-27o-7" value="Слово" style="text;html=1;strokeColor=none;fillColor=none;align=center;verticalAlign=middle;whiteSpace=wrap;rounded=0;" vertex="1" parent="xFK15hoBPHHc_hZM-27o-3">
          <mxGeometry x="53.21000000000001" width="63.57" height="20" as="geometry" />
        </mxCell>
        <mxCell id="xFK15hoBPHHc_hZM-27o-12" value="" style="group" vertex="1" connectable="0" parent="1">
          <mxGeometry x="450" y="434.96000000000004" width="170" height="86.96000000000001" as="geometry" />
        </mxCell>
        <mxCell id="xFK15hoBPHHc_hZM-27o-13" style="edgeStyle=orthogonalEdgeStyle;rounded=0;orthogonalLoop=1;jettySize=auto;html=1;exitX=0;exitY=0.5;exitDx=0;exitDy=0;" edge="1" parent="xFK15hoBPHHc_hZM-27o-12" source="xFK15hoBPHHc_hZM-27o-14">
          <mxGeometry relative="1" as="geometry">
            <mxPoint x="-340" y="-204.96000000000004" as="targetPoint" />
            <Array as="points">
              <mxPoint x="-340" y="43" />
            </Array>
          </mxGeometry>
        </mxCell>
        <mxCell id="xFK15hoBPHHc_hZM-27o-14" value="do: сравнение буфера со списоком кодового слова&lt;br&gt;exit: очистка буфера" style="rounded=1;whiteSpace=wrap;html=1;" vertex="1" parent="xFK15hoBPHHc_hZM-27o-12">
          <mxGeometry y="0.003478260869570704" width="170" height="86.95652173913044" as="geometry" />
        </mxCell>
        <mxCell id="xFK15hoBPHHc_hZM-27o-15" value="" style="endArrow=none;html=1;rounded=0;exitX=0;exitY=0.25;exitDx=0;exitDy=0;entryX=1;entryY=0.25;entryDx=0;entryDy=0;" edge="1" parent="xFK15hoBPHHc_hZM-27o-12" source="xFK15hoBPHHc_hZM-27o-14" target="xFK15hoBPHHc_hZM-27o-14">
          <mxGeometry width="50" height="50" relative="1" as="geometry">
            <mxPoint x="48.571428571428555" y="0.003478260869570704" as="sourcePoint" />
            <mxPoint x="109.28571428571428" y="-72.46028985507246" as="targetPoint" />
          </mxGeometry>
        </mxCell>
        <mxCell id="xFK15hoBPHHc_hZM-27o-16" value="Сравнение" style="text;html=1;strokeColor=none;fillColor=none;align=center;verticalAlign=middle;whiteSpace=wrap;rounded=0;" vertex="1" parent="xFK15hoBPHHc_hZM-27o-12">
          <mxGeometry x="53.21000000000001" width="63.57" height="20" as="geometry" />
        </mxCell>
        <mxCell id="xFK15hoBPHHc_hZM-27o-17" style="edgeStyle=orthogonalEdgeStyle;rounded=0;orthogonalLoop=1;jettySize=auto;html=1;exitX=1;exitY=0.5;exitDx=0;exitDy=0;entryX=0.5;entryY=0;entryDx=0;entryDy=0;" edge="1" parent="1" source="xFK15hoBPHHc_hZM-27o-5" target="xFK15hoBPHHc_hZM-27o-16">
          <mxGeometry relative="1" as="geometry" />
        </mxCell>
        <mxCell id="xFK15hoBPHHc_hZM-27o-18" value="[RD1]" style="text;html=1;align=center;verticalAlign=middle;resizable=0;points=[];autosize=1;strokeColor=none;fillColor=none;" vertex="1" parent="1">
          <mxGeometry x="445" y="332.96000000000004" width="50" height="30" as="geometry" />
        </mxCell>
        <mxCell id="xFK15hoBPHHc_hZM-27o-19" value="[есть соответствие], создание токена кодовое слово" style="text;html=1;align=center;verticalAlign=middle;resizable=0;points=[];autosize=1;strokeColor=none;fillColor=none;" vertex="1" parent="1">
          <mxGeometry x="130" y="452.96000000000004" width="320" height="30" as="geometry" />
        </mxCell>
        <mxCell id="xFK15hoBPHHc_hZM-27o-20" style="edgeStyle=orthogonalEdgeStyle;rounded=0;orthogonalLoop=1;jettySize=auto;html=1;exitX=0;exitY=0.75;exitDx=0;exitDy=0;" edge="1" parent="1" source="xFK15hoBPHHc_hZM-27o-14">
          <mxGeometry relative="1" as="geometry">
            <mxPoint x="100" y="230" as="targetPoint" />
            <Array as="points">
              <mxPoint x="100" y="500" />
              <mxPoint x="100" y="280" />
            </Array>
          </mxGeometry>
        </mxCell>
        <mxCell id="xFK15hoBPHHc_hZM-27o-21" value="[нет соответствия], создание токена идентификатор" style="text;html=1;align=center;verticalAlign=middle;resizable=0;points=[];autosize=1;strokeColor=none;fillColor=none;" vertex="1" parent="1">
          <mxGeometry x="105" y="491.91999999999996" width="310" height="30" as="geometry" />
        </mxCell>
        <mxCell id="xFK15hoBPHHc_hZM-27o-22" style="edgeStyle=orthogonalEdgeStyle;rounded=0;orthogonalLoop=1;jettySize=auto;html=1;exitX=0.25;exitY=1;exitDx=0;exitDy=0;" edge="1" parent="1" source="xFK15hoBPHHc_hZM-27o-14">
          <mxGeometry relative="1" as="geometry">
            <mxPoint x="90" y="230" as="targetPoint" />
          </mxGeometry>
        </mxCell>
        <mxCell id="xFK15hoBPHHc_hZM-27o-23" value="&lt;span style=&quot;color: rgb(0, 0, 0); font-family: Helvetica; font-size: 12px; font-style: normal; font-variant-ligatures: normal; font-variant-caps: normal; font-weight: 400; letter-spacing: normal; orphans: 2; text-align: center; text-indent: 0px; text-transform: none; widows: 2; word-spacing: 0px; -webkit-text-stroke-width: 0px; background-color: rgb(251, 251, 251); text-decoration-thickness: initial; text-decoration-style: initial; text-decoration-color: initial; float: none; display: inline !important;&quot;&gt;[н], создание токена лев_скобка,&lt;br&gt;[к], создание токена прав_скобка&lt;br&gt;&lt;/span&gt;" style="text;whiteSpace=wrap;html=1;" vertex="1" parent="1">
          <mxGeometry x="114" y="544.96" width="320" height="40" as="geometry" />
        </mxCell>
        <mxCell id="Cb0lreidQPEfi4-9KTXO-1" style="edgeStyle=orthogonalEdgeStyle;rounded=0;orthogonalLoop=1;jettySize=auto;html=1;exitX=1;exitY=0.75;exitDx=0;exitDy=0;entryX=0;entryY=0.5;entryDx=0;entryDy=0;" edge="1" parent="1" source="dAqLtwF7J94JJw8BUnHf-11" target="xFK15hoBPHHc_hZM-27o-5">
          <mxGeometry relative="1" as="geometry">
            <Array as="points">
              <mxPoint x="160" y="210" />
              <mxPoint x="160" y="359" />
            </Array>
          </mxGeometry>
        </mxCell>
        <mxCell id="Cb0lreidQPEfi4-9KTXO-2" value="[а]" style="text;html=1;align=center;verticalAlign=middle;resizable=0;points=[];autosize=1;strokeColor=none;fillColor=none;" vertex="1" parent="1">
          <mxGeometry x="309" y="270" width="40" height="30" as="geometry" />
        </mxCell>
        <mxCell id="8n_yLmxlQdX6CQlfo0fF-1" style="edgeStyle=orthogonalEdgeStyle;rounded=0;orthogonalLoop=1;jettySize=auto;html=1;entryX=0.5;entryY=1;entryDx=0;entryDy=0;" edge="1" parent="1" target="8n_yLmxlQdX6CQlfo0fF-4">
          <mxGeometry relative="1" as="geometry">
            <mxPoint x="80" y="230" as="sourcePoint" />
            <mxPoint x="370" y="796.96" as="targetPoint" />
            <Array as="points">
              <mxPoint x="315" y="761.96" />
            </Array>
          </mxGeometry>
        </mxCell>
        <mxCell id="8n_yLmxlQdX6CQlfo0fF-2" value="" style="group" vertex="1" connectable="0" parent="1">
          <mxGeometry x="230" y="650" width="170" height="86.96000000000001" as="geometry" />
        </mxCell>
        <mxCell id="8n_yLmxlQdX6CQlfo0fF-3" style="edgeStyle=orthogonalEdgeStyle;rounded=0;orthogonalLoop=1;jettySize=auto;html=1;exitX=0.25;exitY=0;exitDx=0;exitDy=0;" edge="1" parent="8n_yLmxlQdX6CQlfo0fF-2" source="8n_yLmxlQdX6CQlfo0fF-4">
          <mxGeometry relative="1" as="geometry">
            <mxPoint x="130" y="-0.03999999999999204" as="targetPoint" />
          </mxGeometry>
        </mxCell>
        <mxCell id="8n_yLmxlQdX6CQlfo0fF-4" value="do: запись символа в буфер&lt;br&gt;exit: очистка буфера" style="rounded=1;whiteSpace=wrap;html=1;" vertex="1" parent="8n_yLmxlQdX6CQlfo0fF-2">
          <mxGeometry y="0.003478260869570704" width="170" height="86.95652173913044" as="geometry" />
        </mxCell>
        <mxCell id="8n_yLmxlQdX6CQlfo0fF-5" value="" style="endArrow=none;html=1;rounded=0;exitX=0;exitY=0.25;exitDx=0;exitDy=0;entryX=1;entryY=0.25;entryDx=0;entryDy=0;" edge="1" parent="8n_yLmxlQdX6CQlfo0fF-2" source="8n_yLmxlQdX6CQlfo0fF-4" target="8n_yLmxlQdX6CQlfo0fF-4">
          <mxGeometry width="50" height="50" relative="1" as="geometry">
            <mxPoint x="48.571428571428555" y="0.003478260869570704" as="sourcePoint" />
            <mxPoint x="109.28571428571428" y="-72.46028985507246" as="targetPoint" />
          </mxGeometry>
        </mxCell>
        <mxCell id="8n_yLmxlQdX6CQlfo0fF-6" value="Разделитель" style="text;html=1;strokeColor=none;fillColor=none;align=center;verticalAlign=middle;whiteSpace=wrap;rounded=0;" vertex="1" parent="8n_yLmxlQdX6CQlfo0fF-2">
          <mxGeometry x="53.21000000000001" width="63.57" height="20" as="geometry" />
        </mxCell>
        <mxCell id="8n_yLmxlQdX6CQlfo0fF-15" style="edgeStyle=orthogonalEdgeStyle;rounded=0;orthogonalLoop=1;jettySize=auto;html=1;exitX=1;exitY=0.5;exitDx=0;exitDy=0;" edge="1" parent="1" source="8n_yLmxlQdX6CQlfo0fF-4">
          <mxGeometry relative="1" as="geometry">
            <mxPoint x="525" y="739.96" as="targetPoint" />
          </mxGeometry>
        </mxCell>
        <mxCell id="8n_yLmxlQdX6CQlfo0fF-16" value="[&#39; &#39;, &#39;\t&#39;, &#39;\n&#39;]" style="text;html=1;align=center;verticalAlign=middle;resizable=0;points=[];autosize=1;strokeColor=none;fillColor=none;" vertex="1" parent="1">
          <mxGeometry x="420" y="664.96" width="80" height="30" as="geometry" />
        </mxCell>
        <mxCell id="8n_yLmxlQdX6CQlfo0fF-17" value="[=, !, &amp;lt;, &amp;gt;]" style="text;html=1;align=center;verticalAlign=middle;resizable=0;points=[];autosize=1;strokeColor=none;fillColor=none;" vertex="1" parent="1">
          <mxGeometry x="160" y="727.96" width="70" height="30" as="geometry" />
        </mxCell>
        <mxCell id="8n_yLmxlQdX6CQlfo0fF-18" value="" style="group" vertex="1" connectable="0" parent="1">
          <mxGeometry x="440" y="739.96" width="170" height="86.96000000000001" as="geometry" />
        </mxCell>
        <mxCell id="8n_yLmxlQdX6CQlfo0fF-20" value="do: сравнение буфера со список допустимых комбинаций" style="rounded=1;whiteSpace=wrap;html=1;" vertex="1" parent="8n_yLmxlQdX6CQlfo0fF-18">
          <mxGeometry y="0.003478260869570704" width="170" height="86.95652173913044" as="geometry" />
        </mxCell>
        <mxCell id="8n_yLmxlQdX6CQlfo0fF-21" value="" style="endArrow=none;html=1;rounded=0;exitX=0;exitY=0.25;exitDx=0;exitDy=0;entryX=1;entryY=0.25;entryDx=0;entryDy=0;" edge="1" parent="8n_yLmxlQdX6CQlfo0fF-18" source="8n_yLmxlQdX6CQlfo0fF-20" target="8n_yLmxlQdX6CQlfo0fF-20">
          <mxGeometry width="50" height="50" relative="1" as="geometry">
            <mxPoint x="48.571428571428555" y="0.003478260869570704" as="sourcePoint" />
            <mxPoint x="109.28571428571428" y="-72.46028985507246" as="targetPoint" />
          </mxGeometry>
        </mxCell>
        <mxCell id="8n_yLmxlQdX6CQlfo0fF-22" value="Сравнение" style="text;html=1;strokeColor=none;fillColor=none;align=center;verticalAlign=middle;whiteSpace=wrap;rounded=0;" vertex="1" parent="8n_yLmxlQdX6CQlfo0fF-18">
          <mxGeometry x="53.21000000000001" width="63.57" height="20" as="geometry" />
        </mxCell>
        <mxCell id="8n_yLmxlQdX6CQlfo0fF-23" value="[нет соответствия]" style="text;html=1;align=center;verticalAlign=middle;resizable=0;points=[];autosize=1;strokeColor=none;fillColor=none;" vertex="1" parent="1">
          <mxGeometry x="640" y="634.96" width="130" height="30" as="geometry" />
        </mxCell>
        <mxCell id="8n_yLmxlQdX6CQlfo0fF-24" style="edgeStyle=orthogonalEdgeStyle;rounded=0;orthogonalLoop=1;jettySize=auto;html=1;exitX=0;exitY=0.75;exitDx=0;exitDy=0;entryX=0.25;entryY=1;entryDx=0;entryDy=0;" edge="1" parent="1" source="8n_yLmxlQdX6CQlfo0fF-20" target="dAqLtwF7J94JJw8BUnHf-11">
          <mxGeometry relative="1" as="geometry">
            <Array as="points">
              <mxPoint x="410" y="805" />
              <mxPoint x="410" y="850" />
              <mxPoint x="60" y="850" />
            </Array>
            <mxPoint x="90" y="796.96" as="targetPoint" />
          </mxGeometry>
        </mxCell>
        <mxCell id="8n_yLmxlQdX6CQlfo0fF-25" value="[есть соотвествие], создание токена сравнение" style="text;html=1;align=center;verticalAlign=middle;resizable=0;points=[];autosize=1;strokeColor=none;fillColor=none;" vertex="1" parent="1">
          <mxGeometry x="115" y="817.96" width="290" height="30" as="geometry" />
        </mxCell>
        <mxCell id="8n_yLmxlQdX6CQlfo0fF-19" style="edgeStyle=orthogonalEdgeStyle;rounded=0;orthogonalLoop=1;jettySize=auto;html=1;exitX=1;exitY=0.5;exitDx=0;exitDy=0;entryX=0.5;entryY=1;entryDx=0;entryDy=0;" edge="1" parent="1" source="8n_yLmxlQdX6CQlfo0fF-20" target="dAqLtwF7J94JJw8BUnHf-17">
          <mxGeometry relative="1" as="geometry">
            <mxPoint x="620" y="310" as="targetPoint" />
            <Array as="points">
              <mxPoint x="640" y="783" />
              <mxPoint x="640" y="310" />
              <mxPoint x="515" y="310" />
            </Array>
          </mxGeometry>
        </mxCell>
      </root>
    </mxGraphModel>
  </diagram>
</mxfile>
